# xmcd
#
# Track frame offsets: 
#        150
#        29725
#        50227
#        73302
#        93637
#        107600
#        129522
#        150750
#        170832
#
# Disc length: 2615 seconds
#
# Revision: 6
# Processed by: cddbd v1.5.2PL0 Copyright (c) Steve Scherf et al.
# Submitted via: ExactAudioCopy v0.95b3
#
DISCID=800a3509
DTITLE=Ben Webster - The Jeep Is Jumping
DYEAR=1965
DGENRE=Jazz
TTITLE0=Stompy Jones (Strayhorn)
TTITLE1=Blue Light  (Ellington)
TTITLE2=Brother John's Blues (Webster)
TTITLE3=Nancy With The Laughing Face (Van Heusen_Silvers)
TTITLE4=Duke's In Bed_Ellington)
TTITLE5=My Romance (Rodgers)
TTITLE6=What's I'm Gotchere?  (Coe)
TTITLE7=Days Of Wine And Roses (Mercer_Mancini)
TTITLE8=The Jeep Is Jumping (Hodges_Ellington)
EXTD=First 8 tracks arer the same as the Jazz Time "STORMY WEATHER " d
EXTD=isc. Track 9 is different\n YEAR: 1965
EXTT0=
EXTT1=
EXTT2=
EXTT3=
EXTT4=
EXTT5=
EXTT6=
EXTT7=
EXTT8=
PLAYORDER=
